<?xml version="1.0" standalone="no"?>
<!DOCTYPE svg PUBLIC "-//W3C//DTD SVG 20010904//EN"
 "http://www.w3.org/TR/2001/REC-SVG-20010904/DTD/svg10.dtd">
<svg version="1.0" xmlns="http://www.w3.org/2000/svg"
 width="2268.000000pt" height="2268.000000pt" viewBox="0 0 2268.000000 2268.000000"
 preserveAspectRatio="xMidYMid meet">
<metadata>
Created by potrace 1.16, written by Peter Selinger 2001-2019
</metadata>
<g transform="translate(0.000000,2268.000000) scale(0.100000,-0.100000)"
fill="#000000" stroke="none">
<path d="M4095 21333 c-112 -10 -334 -46 -441 -72 -774 -190 -1429 -659 -1855
-1331 -237 -374 -391 -812 -444 -1266 -13 -114 -15 -966 -15 -7324 0 -6358 2
-7210 15 -7324 69 -590 305 -1141 680 -1591 138 -166 345 -362 510 -485 33
-25 62 -47 65 -50 6 -7 149 -98 221 -141 93 -55 309 -160 424 -205 212 -82
451 -145 690 -181 115 -17 443 -18 7395 -18 6952 0 7280 1 7395 18 686 103
1276 402 1751 888 480 493 776 1126 844 1808 14 144 14 14418 0 14562 -102
1029 -731 1940 -1656 2402 -287 144 -571 234 -904 289 l-135 23 -7250 1
c-3987 0 -7268 -1 -7290 -3z m8113 -865 c-16 -5 -28 -14 -28 -19 0 -11 22 -7
33 6 5 6 7 4 4 -5 -2 -8 -12 -15 -23 -15 -10 1 -23 -4 -27 -10 -5 -6 -6 -2 -3
8 5 15 2 17 -17 11 -25 -7 -38 -24 -31 -36 3 -5 2 -8 -3 -7 -4 1 -11 0 -15 -1
-5 -1 -12 -4 -18 -5 -5 -1 -12 -4 -15 -5 -3 -1 -9 -4 -15 -5 -5 -1 -12 -4 -15
-5 -3 -1 -9 -4 -15 -5 -5 -1 -12 -4 -15 -5 -3 -1 -9 -4 -15 -5 -5 -1 -12 -4
-15 -5 -3 -1 -9 -4 -15 -5 -5 -1 -12 -4 -15 -5 -3 -1 -9 -4 -15 -5 -5 -1 -12
-4 -15 -5 -3 -1 -9 -4 -15 -5 -5 -1 -12 -4 -15 -5 -3 -1 -9 -4 -15 -5 -5 -1
-12 -4 -15 -5 -3 -1 -9 -4 -15 -5 -5 -1 -12 -4 -15 -5 -3 -1 -9 -4 -15 -5 -5
-1 -12 -4 -15 -5 -3 -1 -9 -4 -15 -5 -5 -1 -12 -4 -15 -5 -3 -1 -9 -4 -15 -5
-5 -1 -12 -4 -15 -5 -3 -1 -9 -4 -15 -5 -5 -1 -12 -4 -15 -5 -3 -1 -9 -4 -15
-5 -5 -1 -12 -4 -15 -5 -3 -1 -9 -4 -15 -5 -5 -1 -12 -4 -15 -5 -3 -1 -9 -4
-15 -5 -5 -1 -12 -4 -15 -5 -3 -1 -9 -4 -15 -5 -5 -1 -12 -4 -15 -5 -3 -1 -9
-4 -15 -5 -5 -1 -12 -4 -15 -5 -3 -1 -9 -4 -15 -5 -5 -1 -12 -4 -15 -5 -3 -1
-9 -4 -15 -5 -5 -1 -12 -4 -15 -5 -3 -1 -9 -4 -15 -5 -5 -1 -12 -4 -15 -5 -3
-1 -9 -4 -15 -5 -5 -1 -12 -4 -15 -5 -3 -1 -9 -4 -15 -5 -5 -1 -12 -4 -15 -5
-3 -1 -9 -4 -15 -5 -5 -1 -12 -4 -15 -5 -3 -1 -9 -4 -15 -5 -5 -1 -12 -4 -15
-5 -3 -1 -9 -4 -15 -5 -5 -1 -12 -4 -15 -5 -3 -1 -9 -4 -15 -5 -5 -1 -12 -4
-15 -5 -3 -1 -9 -4 -15 -5 -5 -1 -12 -4 -15 -5 -3 -1 -9 -4 -15 -5 -5 -1 -12
-4 -15 -5 -3 -1 -9 -4 -15 -5 -5 -1 -12 -4 -15 -5 -3 -1 -9 -4 -15 -5 -5 -1
-11 -3 -12 -5 -2 -1 -11 -3 -21 -5 -15 -3 -16 -1 -5 12 11 14 11 15 -2 10 -8
-3 -32 -11 -52 -18 -21 -7 -38 -16 -38 -20 0 -6 18 -6 38 0 1 1 5 1 8 0 4 0
11 5 16 13 8 11 9 11 6 0 -2 -8 -6 -12 -9 -10 -3 2 -12 -2 -20 -8 -8 -5 -21
-10 -29 -9 -8 0 -19 -4 -23 -10 -5 -6 -6 -2 -3 8 5 15 2 17 -16 11 -12 -4 -31
-17 -41 -30 -10 -13 -21 -23 -25 -23 -4 1 -10 0 -14 -1 -5 -1 -12 -4 -18 -5
-5 -1 -12 -4 -15 -5 -3 -1 -9 -4 -15 -5 -5 -1 -12 -4 -15 -5 -3 -1 -9 -4 -15
-5 -5 -1 -12 -4 -15 -5 -3 -1 -9 -4 -15 -5 -5 -1 -12 -4 -15 -5 -3 -1 -9 -4
-15 -5 -5 -1 -12 -4 -15 -5 -3 -1 -9 -4 -15 -5 -5 -1 -12 -4 -15 -5 -3 -1 -9
-4 -15 -5 -5 -1 -12 -4 -15 -5 -3 -1 -9 -4 -15 -5 -5 -1 -12 -4 -15 -5 -3 -1
-9 -4 -15 -5 -5 -1 -12 -4 -15 -5 -3 -1 -9 -4 -15 -5 -5 -1 -12 -4 -15 -5 -3
-1 -9 -4 -15 -5 -5 -1 -12 -4 -15 -5 -3 -1 -9 -4 -15 -5 -5 -1 -12 -4 -15 -5
-3 -1 -9 -4 -15 -5 -5 -1 -12 -4 -15 -5 -3 -1 -9 -4 -15 -5 -5 -1 -12 -4 -15
-5 -3 -1 -9 -4 -15 -5 -5 -1 -12 -4 -15 -5 -3 -1 -9 -4 -15 -5 -5 -1 -12 -4
-15 -5 -3 -1 -9 -4 -15 -5 -5 -1 -12 -4 -15 -5 -3 -1 -9 -4 -15 -5 -5 -1 -12
-4 -15 -5 -3 -1 -9 -4 -15 -5 -5 -1 -12 -4 -15 -5 -3 -1 -9 -4 -15 -5 -5 -1
-12 -4 -15 -5 -3 -1 -9 -4 -15 -5 -5 -1 -12 -4 -15 -5 -3 -1 -9 -4 -15 -5 -5
-1 -12 -4 -15 -5 -3 -1 -9 -4 -15 -5 -5 -1 -12 -4 -15 -5 -3 -1 -9 -4 -15 -5
-5 -1 -12 -4 -15 -5 -3 -1 -9 -4 -15 -5 -5 -1 -12 -4 -15 -5 -3 -1 -9 -4 -15
-5 -5 -1 -12 -4 -15 -5 -3 -1 -9 -4 -15 -5 -5 -1 -12 -4 -15 -5 -3 -1 -9 -4
-15 -5 -5 -1 -12 -4 -15 -5 -3 -1 -9 -4 -15 -5 -5 -1 -12 -4 -15 -5 -3 -1 -8
-3 -12 -4 -5 -1 -17 -6 -28 -12 -11 -6 -27 -10 -35 -9 -8 0 -19 -4 -23 -10 -5
-6 -6 -2 -3 8 5 15 2 17 -16 11 -12 -4 -31 -17 -41 -30 -10 -13 -21 -23 -25
-23 -4 1 -10 0 -14 -1 -5 -1 -12 -4 -18 -5 -5 -1 -12 -4 -15 -5 -3 -1 -9 -4
-15 -5 -5 -1 -12 -4 -15 -5 -3 -1 -9 -4 -15 -5 -5 -1 -12 -4 -15 -5 -3 -1 -9
-4 -15 -5 -5 -1 -12 -4 -15 -5 -3 -1 -9 -4 -15 -5 -5 -1 -12 -4 -15 -5 -3 -1
-9 -4 -15 -5 -5 -1 -12 -4 -15 -5 -3 -1 -9 -4 -15 -5 -5 -1 -12 -4 -15 -5 -3
-1 -9 -4 -15 -5 -5 -1 -12 -4 -15 -5 -3 -1 -9 -4 -15 -5 -5 -1 -12 -4 -15 -5
-3 -1 -9 -4 -15 -5 -5 -1 -12 -4 -15 -5 -3 -1 -9 -4 -15 -5 -5 -1 -12 -4 -15
-5 -3 -1 -9 -4 -15 -5 -5 -1 -12 -4 -15 -5 -3 -1 -9 -4 -15 -5 -5 -1 -12 -4
-15 -5 -3 -1 -9 -4 -15 -5 -5 -1 -12 -4 -15 -5 -3 -1 -9 -4 -15 -5 -5 -1 -12
-4 -15 -5 -3 -1 -9 -4 -15 -5 -5 -1 -12 -4 -15 -5 -3 -1 -9 -4 -15 -5 -5 -1
-12 -4 -15 -5 -3 -1 -9 -4 -15 -5 -5 -1 -12 -4 -15 -5 -3 -1 -9 -4 -15 -5 -5
-1 -12 -4 -15 -5 -3 -1 -9 -4 -15 -5 -5 -1 -12 -4 -15 -5 -3 -1 -9 -4 -15 -5
-5 -1 -12 -4 -15 -5 -3 -1 -9 -4 -15 -5 -5 -1 -12 -4 -15 -5 -3 -1 -9 -4 -15
-5 -5 -1 -12 -4 -15 -5 -3 -1 -9 -4 -15 -5 -5 -1 -12 -4 -15 -5 -3 -1 -9 -4
-15 -5 -5 -1 -12 -4 -15 -5 -3 -1 -9 -4 -15 -5 -5 -1 -12 -4 -15 -5 -3 -1 -9
-4 -15 -5 -5 -1 -12 -4 -15 -5 -3 -1 -9 -4 -15 -5 -5 -1 -12 -4 -15 -5 -3 -1
-9 -4 -15 -5 -5 -1 -12 -4 -15 -5 -3 -1 -8 -3 -12 -4 -5 -1 -17 -6 -28 -12
-11 -6 -27 -10 -35 -9 -8 0 -19 -4 -23 -10 -5 -6 -6 -2 -3 8 5 15 2 17 -16 11
-12 -4 -31 -17 -41 -30 -10 -13 -21 -23 -25 -23 -4 1 -10 0 -14 -1 -5 -1 -12
-4 -18 -5 -5 -1 -12 -4 -15 -5 -3 -1 -9 -4 -15 -5 -5 -1 -12 -4 -15 -5 -3 -1
-9 -4 -15 -5 -5 -1 -12 -4 -15 -5 -3 -1 -9 -4 -15 -5 -5 -1 -12 -4 -15 -5 -3
-1 -9 -4 -15 -5 -5 -1 -12 -4 -15 -5 -3 -1 -9 -4 -15 -5 -5 -1 -12 -4 -15 -5
-3 -1 -9 -4 -15 -5 -5 -1 -12 -4 -15 -5 -3 -1 -9 -4 -15 -5 -5 -1 -12 -4 -15
-5 -3 -1 -9 -4 -15 -5 -5 -1 -12 -4 -15 -5 -3 -1 -9 -4 -15 -5 -5 -1 -12 -4
-15 -5 -3 -1 -9 -4 -15 -5 -5 -1 -12 -4 -15 -5 -3 -1 -9 -4 -15 -5 -5 -1 -12
-4 -15 -5 -3 -1 -9 -4 -15 -5 -5 -1 -12 -4 -15 -5 -3 -1 -9 -4 -15 -5 -5 -1
-12 -4 -15 -5 -3 -1 -9 -4 -15 -5 -5 -1 -12 -4 -15 -5 -3 -1 -9 -4 -15 -5 -5
-1 -12 -4 -15 -5 -3 -1 -9 -4 -15 -5 -5 -1 -12 -4 -15 -5 -3 -1 -9 -4 -15 -5
-5 -1 -12 -4 -15 -5 -3 -1 -9 -4 -15 -5 -5 -1 -12 -4 -15 -5 -3 -1 -9 -4 -15
-5 -5 -1 -12 -4 -15 -5 -3 -1 -9 -4 -15 -5 -5 -1 -12 -4 -15 -5 -3 -1 -9 -4
-15 -5 -5 -1 -12 -4 -15 -5 -3 -1 -9 -4 -15 -5 -5 -1 -12 -4 -15 -5 -3 -1 -9
-4 -15 -5 -5 -1 -12 -4 -15 -5 -3 -1 -9 -4 -15 -5 -5 -1 -12 -4 -15 -5 -3 -1
-9 -4 -15 -5 -5 -1 -12 -4 -15 -5 -3 -1 -9 -4 -15 -5 -5 -1 -12 -4 -15 -5 -3
-1 -9 -4 -15 -5 -5 -1 -12 -4 -15 -5 -3 -1 -9 -4 -15 -5 -5 -1 -12 -4 -15 -5
-3 -1 -8 -3 -12 -4 -5 -1 -17 -6 -28 -12 -11 -6 -27 -10 -35 -9 -8 0 -19 -4
-23 -10 -5 -6 -6 -2 -3 8 5 15 2 17 -16 11 -12 -4 -31 -17 -41 -30 -10 -13
-21 -23 -25 -23 -4 1 -10 0 -14 -1 -5 -1 -12 -4 -18 -5 -5 -1 -12 -4 -15 -5
-3 -1 -9 -4 -15 -5 -5 -1 -12 -4 -15 -5 -3 -1 -9 -4 -15 -5 -5 -1 -12 -4 -15
-5 -3 -1 -9 -4 -15 -5 -5 -1 -12 -4 -15 -5 -3 -1 -9 -4 -15 -5 -5 -1 -12 -4
-15 -5 -3 -1 -9 -4 -15 -5 -5 -1 -12 -4 -15 -5 -3 -1 -9 -4 -15 -5 -5 -1 -12
-4 -15 -5 -3 -1 -9 -4 -15 -5 -5 -1 -12 -4 -15 -5 -3 -1 -9 -4 -15 -5 -5 -1
-12 -4 -15 -5 -3 -1 -9 -4 -15 -5 -5 -1 -12 -4 -15 -5 -3 -1 -9 -4 -15 -5 -5
-1 -12 -4 -15 -5 -3 -1 -9 -4 -15 -5 -5 -1 -12 -4 -15 -5 -3 -1 -9 -4 -15 -5
-5 -1 -12 -4 -15 -5 -3 -1 -9 -4 -15 -5 -5 -1 -12 -4 -15 -5 -3 -1 -9 -4 -15
-5 -5 -1 -12 -4 -15 -5 -3 -1 -9 -4 -15 -5 -5 -1 -12 -4 -15 -5 -3 -1 -9 -4
-15 -5 -5 -1 -12 -4 -15 -5 -3 -1 -9 -4 -15 -5 -5 -1 -12 -4 -15 -5 -3 -1 -9
-4 -15 -5 -5 -1 -12 -4 -15 -5 -3 -1 -9 -4 -15 -5 -5 -1 -12 -4 -15 -5 -3 -1
-9 -4 -15 -5 -5 -1 -12 -4 -15 -5 -3 -1 -9 -4 -15 -5 -5 -1 -12 -4 -15 -5 -3
-1 -9 -4 -15 -5 -5 -1 -12 -4 -15 -5 -3 -1 -9 -4 -15 -5 -5 -1 -12 -4 -15 -5
-3 -1 -9 -4 -15 -5 -5 -1 -12 -4 -15 -5 -3 -1 -9 -4 -15 -5 -5 -1 -12 -4 -15
-5 -3 -1 -9 -4 -15 -5 -5 -1 -12 -4 -15 -5 -3 -1 -9 -4 -15 -5 -5 -1 -12 -4
-15 -5 -3 -1 -9 -4 -15 -5 -5 -1 -12 -4 -15 -5 -3 -1 -8 -3 -12 -4 -5 -1 -17
-6 -28 -12 -11 -6 -27 -10 -35 -9 -8 0 -19 -4 -23 -10 -5 -6 -6 -2 -3 8 5 15
2 17 -16 11 -12 -4 -31 -17 -41 -30 -10 -13 -21 -23 -25 -23 -4 1 -10 0 -14
-1 -5 -1 -12 -4 -18 -5 -5 -1 -12 -4 -15 -5 -3 -1 -9 -4 -15 -5 -5 -1 -12 -4
-15 -5 -3 -1 -9 -4 -15 -5 -5 -1 -12 -4 -15 -5 -3 -1 -9 -4 -15 -5 -5 -1 -12
-4 -15 -5 -3 -1 -9 -4 -15 -5 -5 -1 -12 -4 -15 -5 -3 -1 -9 -4 -15 -5 -5 -1
-12 -4 -15 -5 -3 -1 -9 -4 -15 -5 -5 -1 -12 -4 -15 -5 -3 -1 -9 -4 -15 -5 -5
-1 -12 -4 -15 -5 -3 -1 -9 -4 -15 -5 -5 -1 -12 -4 -15 -5 -3 -1 -9 -4 -15 -5
-5 -1 -12 -4 -15 -5 -3 -1 -9 -4 -15 -5 -5 -1 -12 -4 -15 -5 -3 -1 -9 -4 -15
-5 -5 -1 -12 -4 -15 -5 -3 -1 -9 -4 -15 -5 -5 -1 -12 -4 -15 -5 -3 -1 -9 -4
-15 -5 -5 -1 -12 -4 -15 -5 -3 -1 -9 -4 -15 -5 -5 -1 -12 -4 -15 -5 -3 -1 -9
-4 -15 -5 -5 -1 -12 -4 -15 -5 -3 -1 -9 -4 -15 -5 -5 -1 -12 -4 -15 -5 -3 -1
-9 -4 -15 -5 -5 -1 -12 -4 -15 -5 -3 -1 -9 -4 -15 -5 -5 -1 -12 -4 -15 -5 -3
-1 -9 -4 -15 -5 -5 -1 -12 -4 -15 -5 -3 -1 -9 -4 -15 -5 -5 -1 -12 -4 -15 -5
-3 -1 -9 -4 -15 -5 -5 -1 -12 -4 -15 -5 -3 -1 -9 -4 -15 -5 -5 -1 -12 -4 -15
-5 -3 -1 -9 -4 -15 -5 -5 -1 -12 -4 -15 -5 -3 -1 -9 -4 -15 -5 -5 -1 -12 -4
-15 -5 -3 -1 -9 -4 -15 -5 -5 -1 -12 -4 -15 -5 -3 -1 -9 -4 -15 -5 -5 -1 -12
-4 -15 -5 -3 -1 -9 -4 -15 -5 -5 -1 -12 -4 -15 -5 -3 -1 -9 -4 -15 -5 -5 -1
-12 -4 -15 -5 -3 -1 -9 -4 -15 -5 -5 -1 -11 -3 -12 -5 -2 -1 -11 -3 -21 -5
-15 -3 -16 -1 -5 12 11 14 11 15 -2 10 -8 -3 -32 -11 -52 -18 -21 -7 -38 -16
-38 -20 0 -6 18 -6 38 0 1 1 5 1 8 0 4 0 11 5 16 13 8 10 9 10 5 -2 -2 -8 -9
-16 -15 -16 -7 -1 -14 -3 -17 -4 -3 -1 -9 -4 -15 -5 -5 -1 -12 -4 -15 -5 -3
-1 -9 -4 -15 -5 -5 -1 -12 -4 -15 -5 -3 -1 -9 -4 -15 -5 -5 -1 -12 -4 -15 -5
-3 -1 -9 -4 -15 -5 -5 -1 -12 -4 -15 -5 -3 -1 -9 -4 -15 -5 -5 -1 -12 -4 -15
-5 -3 -1 -9 -4 -15 -5 -5 -1 -12 -4 -15 -5 -3 -1 -9 -4 -15 -5 -5 -1 -12 -4
-15 -5 -3 -1 -9 -4 -15 -5 -5 -1 -12 -4 -15 -5 -3 -1 -9 -4 -15 -5 -5 -1 -12
-4 -15 -5 -3 -1 -9 -4 -15 -5 -5 -1 -12 -4 -15 -5 -3 -1 -9 -4 -15 -5 -5 -1
-12 -4 -15 -5 -3 -1 -9 -4 -15 -5 -5 -1 -12 -4 -15 -5 -3 -1 -9 -4 -15 -5 -5
-1 -12 -4 -15 -5 -3 -1 -9 -4 -15 -5 -5 -1 -12 -4 -15 -5 -3 -1 -9 -4 -15 -5
-5 -1 -12 -4 -15 -5 -3 -1 -9 -4 -15 -5 -5 -1 -12 -4 -15 -5 -3 -1 -9 -4 -15
-5 -5 -1 -12 -4 -15 -5 -3 -1 -9 -4 -15 -5 -5 -1 -12 -4 -15 -5 -3 -1 -9 -4
-15 -5 -5 -1 -12 -4 -15 -5 -3 -1 -9 -4 -15 -5 -5 -1 -12 -4 -15 -5 -3 -1 -9
-4 -15 -5 -5 -1 -12 -4 -15 -5 -3 -1 -9 -4 -15 -5 -5 -1 -12 -4 -15 -5 -3 -1
-9 -4 -15 -5 -5 -1 -12 -4 -15 -5 -3 -1 -9 -4 -15 -5 -5 -1 -12 -4 -15 -5 -3
-1 -9 -4 -15 -5 -5 -1 -12 -4 -15 -5 -3 -1 -9 -4 -15 -5 -5 -1 -12 -4 -15 -5
-3 -1 -9 -4 -15 -5 -5 -1 -12 -4 -15 -5 -3 -1 -9 -4 -15 -5 -5 -1 -12 -4 -15
-5 -3 -1 -9 -4 -15 -5 -5 -1 -12 -4 -15 -5 -3 -1 -9 -4 -15 -5 -5 -1 -12 -4
-15 -5 -3 -1 -9 -4 -15 -5 -5 -1 -12 -4 -15 -5 -3 -1 -9 -4 -15 -5 -5 -1 -12
-4 -15 -5 -3 -1 -9 -4 -15 -5 -5 -1 -11 -3 -12 -5 -2 -1 -11 -3 -21 -5 -15 -3
-16 -1 -5 12 11 14 11 15 -2 10 -8 -3 -32 -11 -52 -18 -21 -7 -38 -16 -38 -20
0 -6 18 -6 38 0 1 1 5 1 8 0 4 0 11 5 16 13 8 10 9 10 5 -2 -2 -8 -9 -16 -15
-16 -7 -1 -14 -3 -17 -4 -3 -1 -9 -4 -15 -5 -5 -1 -12 -4 -15 -5 -3 -1 -9 -4
-15 -5 -5 -1 -12 -4 -15 -5 -3 -1 -9 -4 -15 -5 -5 -1 -12 -4 -15 -5 -3 -1 -9
-4 -15 -5 -5 -1 -12 -4 -15 -5 -3 -1 -9 -4 -15 -5 -5 -1 -12 -4 -15 -5 -3 -1
-9 -4 -15 -5 -5 -1 -12 -4 -15 -5 -3 -1 -9 -4 -15 -5 -5 -1 -12 -4 -15 -5 -3
-1 -9 -4 -15 -5 -5 -1 -12 -4 -15 -5 -3 -1 -9 -4 -15 -5 -5 -1 -12 -4 -15 -5
-3 -1 -9 -4 -15 -5 -5 -1 -12 -4 -15 -5 -3 -1 -9 -4 -15 -5 -5 -1 -12 -4 -15
-5 -3 -1 -9 -4 -15 -5 -5 -1 -12 -4 -15 -5 -3 -1 -9 -4 -15 -5 -5 -1 -12 -4
-15 -5 -3 -1 -9 -4 -15 -5 -5 -1 -12 -4 -15 -5 -3 -1 -9 -4 -15 -5 -5 -1 -12
-4 -15 -5 -3 -1 -9 -4 -15 -5 -5 -1 -12 -4 -15 -5 -3 -1 -9 -4 -15 -5 -5 -1
-12 -4 -15 -5 -3 -1 -9 -4 -15 -5 -5 -1 -12 -4 -15 -5 -3 -1 -9 -4 -15 -5 -5
-1 -12 -4 -15 -5 -3 -1 -9 -4 -15 -5 -5 -1 -12 -4 -15 -5 -3 -1 -9 -4 -15 -5
-5 -1 -12 -4 -15 -5 -3 -1 -9 -4 -15 -5 -5 -1 -12 -4 -15 -5 -3 -1 -9 -4 -15
-5 -5 -1 -12 -4 -15 -5 -3 -1 -9 -4 -15 -5 -5 -1 -12 -4 -15 -5 -3 -1 -9 -4
-15 -5 -5 -1 -12 -4 -15 -5 -3 -1 -9 -4 -15 -5 -5 -1 -12 -4 -15 -5 -3 -1 -9
-4 -15 -5 -5 -1 -12 -4 -15 -5 -3 -1 -9 -4 -15 -5 -5 -1 -12 -4 -15 -5 -3 -1
-9 -4 -15 -5 -5 -1 -12 -4 -15 -5 -3 -1 -9 -4 -15 -5 -5 -1 -12 -4 -15 -5 -3
-1 -9 -4 -15 -5 -5 -1 -12 -4 -15 -5 -3 -1 -9 -4 -15 -5 -5 -1 -12 -4 -15 -5
-3 -1 -9 -4 -15 -5 -5 -1 -11 -3 -12 -5 -2 -1 -11 -3 -21 -5 -15 -3 -16 -1 -5
12 11 14 11 15 -2 10 -8 -3 -32 -11 -52 -18 -49 -16 -49 -35 0 -20 1 1 5 1 8
0 4 0 11 5 16 13 8 11 9 11 6 0 -2 -8 -8 -14 -13 -14 -6 0 -14 -3 -20 -7 -5
-4 -17 -7 -25 -6 -8 0 -19 -4 -23 -10 -5 -6 -6 -2 -3 8 5 15 2 17 -16 11 -12
-4 -31 -17 -41 -30 -10 -13 -21 -23 -25 -23 -4 1 -10 0 -14 -1 -5 -1 -12 -4
-18 -5 -5 -1 -12 -4 -15 -5 -3 -1 -9 -4 -15 -5 -5 -1 -12 -4 -15 -5 -3 -1 -9
-4 -15 -5 -5 -1 -12 -4 -15 -5 -3 -1 -9 -4 -15 -5 -5 -1 -12 -4 -15 -5 -3 -1
-9 -4 -15 -5 -5 -1 -12 -4 -15 -5 -3 -1 -9 -4 -15 -5 -5 -1 -12 -4 -15 -5 -3
-1 -9 -4 -15 -5 -5 -1 -12 -4 -15 -5 -3 -1 -9 -4 -15 -5 -5 -1 -12 -4 -15 -5
-3 -1 -9 -4 -15 -5 -5 -1 -12 -4 -15 -5 -3 -1 -9 -4 -15 -5 -5 -1 -12 -4 -15
-5 -3 -1 -9 -4 -15 -5 -5 -1 -12 -4 -15 -5 -3 -1 -9 -4 -15 -5 -5 -1 -12 -4
-15 -5 -3 -1 -9 -4 -15 -5 -5 -1 -12 -4 -15 -5 -3 -1 -9 -4 -15 -5 -5 -1 -12
-4 -15 -5 -3 -1 -9 -4 -15 -5 -5 -1 -12 -4 -15 -5 -3 -1 -9 -4 -15 -5 -5 -1
-12 -4 -15 -5 -3 -1 -9 -4 -15 -5 -5 -1 -12 -4 -15 -5 -3 -1 -9 -4 -15 -5 -5
-1 -12 -4 -15 -5 -3 -1 -9 -4 -15 -5 -5 -1 -12 -4 -15 -5 -3 -1 -9 -4 -15 -5
-5 -1 -12 -4 -15 -5 -3 -1 -9 -4 -15 -5 -5 -1 -12 -4 -15 -5 -3 -1 -9 -4 -15
-5 -5 -1 -12 -4 -15 -5 -3 -1 -9 -4 -15 -5 -5 -1 -12 -4 -15 -5 -3 -1 -9 -4
-15 -5 -5 -1 -12 -4 -15 -5 -3 -1 -9 -4 -15 -5 -5 -1 -12 -4 -15 -5 -3 -1 -9
-4 -15 -5 -5 -1 -12 -4 -15 -5 -3 -1 -9 -4 -15 -5 -5 -1 -12 -4 -15 -5 -3 -1
-9 -4 -15 -5 -5 -1 -11 -3 -12 -5 -2 -1 -11 -3 -21 -5 -15 -3 -16 -1 -5 12 11
14 11 15 -2 10 -8 -3 -32 -11 -52 -18 -49 -16 -49 -35 0 -20 1 1 5 1 8 0 4 0
11 5 16 13 8 11 9 11 6 0 -2 -8 -6 -12 -9 -10 -3 2 -12 -2 -20 -8 -8 -5 -21
-10 -29 -9 -8 0 -19 -5 -25 -12 -7 -9 -14 -10 -25 -2 -13 9 -13 10 2 6 9 -4
19 1 22 10 4 10 2 14 -6 11 -59 -22 -120 -39 -124 -35 -7 7 54 212 109 368
202 569 541 1124 953 1560 549 581 1191 984 1944 1220 273 86 615 155 880 178
69 6 141 13 160 15 19 1 1356 3 2970 4 1976 0 2926 -3 2908 -10z m-5752 -2449
c594 -58 1059 -352 1302 -826 280 -546 232 -1202 -124 -1675 -76 -103 -234
-255 -334 -324 -218 -150 -477 -248 -767 -290 -158 -24 -477 -23 -623 0 -481
77 -869 312 -1111 674 -114 170 -185 340 -231 552 -19 91 -22 134 -23 325 0
245 8 303 72 504 143 452 493 799 972 965 253 88 577 124 867 95z m9159 -4184
c979 -112 1754 -550 2273 -1282 348 -492 578 -1111 681 -1833 59 -408 55 -200
58 -3312 l3 -2858 -1510 0 -1509 0 -4 2598 c-3 2406 -4 2607 -20 2737 -53 421
-163 760 -327 1008 -66 99 -204 245 -301 317 -309 230 -779 316 -1229 224
-418 -85 -802 -367 -1044 -766 -58 -95 -148 -284 -176 -366 -34 -102 -60 -284
-70 -487 -6 -111 -10 -1247 -10 -2727 l0 -2538 -1511 0 -1511 0 7 1568 c11
2189 11 6986 1 7285 l-8 247 1511 0 1511 0 0 -642 c1 -574 3 -641 16 -623 8
11 52 73 97 137 192 274 421 525 634 695 466 372 1017 579 1683 632 160 13
587 5 755 -14z m-7875 -4735 l0 -4550 -1510 0 -1510 0 0 4550 0 4550 1510 0
1510 0 0 -4550z"/>
<path d="M10948 20043 c-10 -2 -18 -8 -18 -11 0 -4 -12 -8 -26 -9 -15 0 -29
-5 -33 -10 -3 -4 -17 -9 -31 -11 -13 -1 -27 -6 -30 -10 -3 -4 -16 -8 -30 -10
-13 -1 -27 -6 -30 -10 -3 -4 -16 -8 -30 -10 -13 -1 -27 -6 -30 -10 -3 -4 -16
-8 -30 -10 -13 -1 -27 -6 -30 -10 -3 -4 -16 -8 -30 -10 -13 -1 -27 -6 -30 -10
-3 -4 -16 -8 -30 -10 -13 -1 -27 -6 -30 -10 -3 -4 -16 -8 -30 -10 -13 -1 -27
-6 -30 -10 -3 -4 -16 -8 -30 -10 -13 -1 -27 -6 -30 -10 -3 -4 -16 -8 -30 -10
-13 -1 -27 -6 -30 -10 -3 -4 -16 -8 -30 -10 -13 -1 -27 -6 -30 -10 -3 -4 -16
-8 -30 -10 -13 -1 -27 -6 -30 -10 -3 -4 -16 -8 -30 -10 -13 -1 -27 -6 -30 -10
-3 -4 -16 -8 -30 -10 -13 -1 -27 -6 -30 -10 -3 -4 -16 -8 -30 -10 -13 -1 -27
-7 -31 -13 -3 -6 -9 -10 -13 -10 -22 3 -36 0 -36 -8 0 -12 38 -5 56 10 8 6 14
8 14 4 0 -4 7 -2 15 5 8 7 15 9 15 5 0 -4 7 -2 15 5 8 7 15 9 15 5 0 -4 7 -2
15 5 8 7 15 9 15 5 0 -4 7 -2 15 5 8 7 15 9 15 5 0 -4 7 -2 15 5 8 7 15 9 15
5 0 -4 7 -2 15 5 8 7 15 9 15 5 0 -4 7 -2 15 5 8 7 15 9 15 5 0 -4 7 -2 15 5
8 7 15 9 15 5 0 -4 7 -2 15 5 8 7 15 9 15 5 0 -4 7 -2 15 5 8 7 15 9 15 5 0
-4 7 -2 15 5 8 7 15 9 15 5 0 -4 7 -2 15 5 8 7 15 9 15 5 0 -4 7 -2 15 5 8 7
15 9 15 5 0 -4 7 -2 15 5 8 7 15 9 15 5 0 -4 7 -2 15 5 8 7 15 9 15 5 0 -4 7
-2 15 5 8 7 15 9 15 5 0 -4 7 -2 15 5 8 7 15 9 15 5 0 -4 7 -2 15 5 8 7 15 9
15 5 0 -4 7 -2 15 5 8 7 15 9 15 5 0 -4 7 -2 15 5 8 7 15 9 15 5 0 -4 7 -2 15
5 8 7 15 9 15 5 0 -4 7 -2 15 5 8 7 15 9 15 5 0 -4 7 -2 15 5 8 7 15 9 15 5 0
-4 7 -2 15 5 8 7 15 9 15 5 0 -4 7 -2 15 5 8 7 15 9 15 5 0 -4 7 -2 15 5 8 7
15 9 15 5 0 -4 7 -2 15 5 8 7 15 9 15 5 0 -4 7 -2 15 5 8 7 15 9 15 5 0 -4 7
-2 15 5 8 7 15 9 15 5 0 -4 6 -2 13 4 8 6 16 9 19 6 3 -3 11 1 18 10 13 15 9
16 -22 8z"/>
<path d="M9878 19683 c-10 -2 -18 -8 -18 -11 0 -4 -12 -8 -26 -9 -15 0 -29 -5
-33 -10 -3 -4 -17 -9 -31 -11 -13 -1 -27 -6 -30 -10 -3 -4 -16 -8 -30 -10 -13
-1 -27 -6 -30 -10 -3 -4 -16 -8 -30 -10 -13 -1 -27 -6 -30 -10 -3 -4 -16 -8
-30 -10 -13 -1 -27 -6 -30 -10 -3 -4 -16 -8 -30 -10 -13 -1 -27 -6 -30 -10 -3
-4 -16 -8 -30 -10 -13 -1 -27 -6 -30 -10 -3 -4 -16 -8 -30 -10 -13 -1 -27 -6
-30 -10 -3 -4 -16 -8 -30 -10 -13 -1 -27 -6 -30 -10 -3 -4 -16 -8 -30 -10 -13
-1 -27 -6 -30 -10 -3 -4 -16 -8 -30 -10 -13 -1 -27 -6 -30 -10 -3 -4 -16 -8
-30 -10 -13 -1 -27 -6 -30 -10 -3 -4 -16 -8 -30 -10 -13 -1 -27 -6 -30 -10 -3
-4 -16 -8 -30 -10 -13 -1 -27 -6 -30 -10 -3 -4 -16 -8 -30 -10 -13 -1 -27 -7
-31 -13 -3 -6 -9 -10 -13 -10 -22 3 -36 0 -36 -8 0 -12 38 -5 56 10 8 6 14 8
14 4 0 -4 7 -2 15 5 8 7 15 9 15 5 0 -4 7 -2 15 5 8 7 15 9 15 5 0 -4 7 -2 15
5 8 7 15 9 15 5 0 -4 7 -2 15 5 8 7 15 9 15 5 0 -4 7 -2 15 5 8 7 15 9 15 5 0
-4 7 -2 15 5 8 7 15 9 15 5 0 -4 7 -2 15 5 8 7 15 9 15 5 0 -4 7 -2 15 5 8 7
15 9 15 5 0 -4 7 -2 15 5 8 7 15 9 15 5 0 -4 7 -2 15 5 8 7 15 9 15 5 0 -4 7
-2 15 5 8 7 15 9 15 5 0 -4 7 -2 15 5 8 7 15 9 15 5 0 -4 7 -2 15 5 8 7 15 9
15 5 0 -4 7 -2 15 5 8 7 15 9 15 5 0 -4 7 -2 15 5 8 7 15 9 15 5 0 -4 7 -2 15
5 8 7 15 9 15 5 0 -4 7 -2 15 5 8 7 15 9 15 5 0 -4 7 -2 15 5 8 7 15 9 15 5 0
-4 7 -2 15 5 8 7 15 9 15 5 0 -4 7 -2 15 5 8 7 15 9 15 5 0 -4 7 -2 15 5 8 7
15 9 15 5 0 -4 7 -2 15 5 8 7 15 9 15 5 0 -4 7 -2 15 5 8 7 15 9 15 5 0 -4 7
-2 15 5 8 7 15 9 15 5 0 -4 7 -2 15 5 8 7 15 9 15 5 0 -4 7 -2 15 5 8 7 15 9
15 5 0 -4 7 -2 15 5 8 7 15 9 15 5 0 -4 7 -2 15 5 8 7 15 9 15 5 0 -4 7 -2 15
5 8 7 15 9 15 5 0 -4 6 -2 13 4 8 6 16 9 19 6 3 -3 11 1 18 10 13 15 9 16 -22
8z"/>
<path d="M8808 19323 c-10 -2 -18 -8 -18 -11 0 -4 -12 -8 -26 -9 -15 0 -29 -5
-33 -10 -3 -4 -17 -9 -31 -11 -13 -1 -27 -6 -30 -10 -3 -4 -16 -8 -30 -10 -13
-1 -27 -6 -30 -10 -3 -4 -16 -8 -30 -10 -13 -1 -27 -6 -30 -10 -3 -4 -16 -8
-30 -10 -13 -1 -27 -6 -30 -10 -3 -4 -16 -8 -30 -10 -13 -1 -27 -6 -30 -10 -3
-4 -16 -8 -30 -10 -13 -1 -27 -6 -30 -10 -3 -4 -16 -8 -30 -10 -13 -1 -27 -6
-30 -10 -3 -4 -16 -8 -30 -10 -13 -1 -27 -6 -30 -10 -3 -4 -16 -8 -30 -10 -13
-1 -27 -6 -30 -10 -3 -4 -16 -8 -30 -10 -13 -1 -27 -6 -30 -10 -3 -4 -16 -8
-30 -10 -13 -1 -27 -6 -30 -10 -3 -4 -16 -8 -30 -10 -13 -1 -27 -6 -30 -10 -3
-4 -16 -8 -30 -10 -13 -1 -27 -6 -30 -10 -3 -4 -16 -8 -30 -10 -13 -1 -27 -7
-31 -13 -3 -6 -9 -10 -13 -10 -22 3 -36 0 -36 -8 0 -12 38 -5 56 10 8 6 14 8
14 4 0 -4 7 -2 15 5 8 7 15 9 15 5 0 -4 7 -2 15 5 8 7 15 9 15 5 0 -4 7 -2 15
5 8 7 15 9 15 5 0 -4 7 -2 15 5 8 7 15 9 15 5 0 -4 7 -2 15 5 8 7 15 9 15 5 0
-4 7 -2 15 5 8 7 15 9 15 5 0 -4 7 -2 15 5 8 7 15 9 15 5 0 -4 7 -2 15 5 8 7
15 9 15 5 0 -4 7 -2 15 5 8 7 15 9 15 5 0 -4 7 -2 15 5 8 7 15 9 15 5 0 -4 7
-2 15 5 8 7 15 9 15 5 0 -4 7 -2 15 5 8 7 15 9 15 5 0 -4 7 -2 15 5 8 7 15 9
15 5 0 -4 7 -2 15 5 8 7 15 9 15 5 0 -4 7 -2 15 5 8 7 15 9 15 5 0 -4 7 -2 15
5 8 7 15 9 15 5 0 -4 7 -2 15 5 8 7 15 9 15 5 0 -4 7 -2 15 5 8 7 15 9 15 5 0
-4 7 -2 15 5 8 7 15 9 15 5 0 -4 7 -2 15 5 8 7 15 9 15 5 0 -4 7 -2 15 5 8 7
15 9 15 5 0 -4 7 -2 15 5 8 7 15 9 15 5 0 -4 7 -2 15 5 8 7 15 9 15 5 0 -4 7
-2 15 5 8 7 15 9 15 5 0 -4 7 -2 15 5 8 7 15 9 15 5 0 -4 7 -2 15 5 8 7 15 9
15 5 0 -4 7 -2 15 5 8 7 15 9 15 5 0 -4 7 -2 15 5 8 7 15 9 15 5 0 -4 7 -2 15
5 8 7 15 9 15 5 0 -4 6 -2 13 4 8 6 16 9 19 6 3 -3 11 1 18 10 13 15 9 16 -22
8z"/>
<path d="M7738 18963 c-10 -2 -18 -8 -18 -11 0 -4 -12 -8 -26 -9 -15 0 -29 -5
-33 -10 -3 -4 -17 -9 -31 -11 -13 -1 -27 -6 -30 -10 -3 -4 -16 -8 -30 -10 -13
-1 -27 -6 -30 -10 -3 -4 -16 -8 -30 -10 -13 -1 -27 -6 -30 -10 -3 -4 -16 -8
-30 -10 -13 -1 -27 -6 -30 -10 -3 -4 -16 -8 -30 -10 -13 -1 -27 -6 -30 -10 -3
-4 -16 -8 -30 -10 -13 -1 -27 -6 -30 -10 -3 -4 -16 -8 -30 -10 -13 -1 -27 -6
-30 -10 -3 -4 -16 -8 -30 -10 -13 -1 -27 -6 -30 -10 -3 -4 -16 -8 -30 -10 -13
-1 -27 -6 -30 -10 -3 -4 -16 -8 -30 -10 -13 -1 -27 -6 -30 -10 -3 -4 -16 -8
-30 -10 -13 -1 -27 -6 -30 -10 -3 -4 -16 -8 -30 -10 -13 -1 -27 -6 -30 -10 -3
-4 -16 -8 -30 -10 -13 -1 -27 -6 -30 -10 -3 -4 -16 -8 -30 -10 -13 -1 -27 -7
-31 -13 -3 -6 -9 -10 -13 -10 -22 3 -36 0 -36 -8 0 -12 38 -5 56 10 8 6 14 8
14 4 0 -4 7 -2 15 5 8 7 15 9 15 5 0 -4 7 -2 15 5 8 7 15 9 15 5 0 -4 7 -2 15
5 8 7 15 9 15 5 0 -4 7 -2 15 5 8 7 15 9 15 5 0 -4 7 -2 15 5 8 7 15 9 15 5 0
-4 7 -2 15 5 8 7 15 9 15 5 0 -4 7 -2 15 5 8 7 15 9 15 5 0 -4 7 -2 15 5 8 7
15 9 15 5 0 -4 7 -2 15 5 8 7 15 9 15 5 0 -4 7 -2 15 5 8 7 15 9 15 5 0 -4 7
-2 15 5 8 7 15 9 15 5 0 -4 7 -2 15 5 8 7 15 9 15 5 0 -4 7 -2 15 5 8 7 15 9
15 5 0 -4 7 -2 15 5 8 7 15 9 15 5 0 -4 7 -2 15 5 8 7 15 9 15 5 0 -4 7 -2 15
5 8 7 15 9 15 5 0 -4 7 -2 15 5 8 7 15 9 15 5 0 -4 7 -2 15 5 8 7 15 9 15 5 0
-4 7 -2 15 5 8 7 15 9 15 5 0 -4 7 -2 15 5 8 7 15 9 15 5 0 -4 7 -2 15 5 8 7
15 9 15 5 0 -4 7 -2 15 5 8 7 15 9 15 5 0 -4 7 -2 15 5 8 7 15 9 15 5 0 -4 7
-2 15 5 8 7 15 9 15 5 0 -4 7 -2 15 5 8 7 15 9 15 5 0 -4 7 -2 15 5 8 7 15 9
15 5 0 -4 7 -2 15 5 8 7 15 9 15 5 0 -4 7 -2 15 5 8 7 15 9 15 5 0 -4 7 -2 15
5 8 7 15 9 15 5 0 -4 6 -2 13 4 8 6 16 9 19 6 3 -3 11 1 18 10 13 15 9 16 -22
8z"/>
</g>
</svg>
