<?xml version="1.0" standalone="no"?>
<!DOCTYPE svg PUBLIC "-//W3C//DTD SVG 20010904//EN"
 "http://www.w3.org/TR/2001/REC-SVG-20010904/DTD/svg10.dtd">
<svg version="1.0" xmlns="http://www.w3.org/2000/svg"
 width="512.000000pt" height="511.000000pt" viewBox="0 0 512.000000 511.000000"
 preserveAspectRatio="xMidYMid meet">
<metadata>
Created by potrace 1.16, written by Peter Selinger 2001-2019
</metadata>
<g transform="translate(0.000000,511.000000) scale(0.100000,-0.100000)"
fill="#000000" stroke="none">
<path d="M2240 5103 c-19 -2 -86 -13 -149 -24 -776 -136 -1482 -673 -1831
-1394 -180 -372 -260 -725 -260 -1149 0 -449 120 -819 417 -1288 149 -235 302
-336 428 -284 19 8 35 17 35 20 0 3 -28 40 -63 83 -316 392 -494 786 -547
1213 -13 106 -13 425 0 549 93 882 712 1636 1575 1920 350 115 655 136 1055
71 840 -137 1482 -628 1794 -1373 122 -290 172 -543 170 -867 -2 -377 -70
-676 -229 -1005 -112 -232 -233 -406 -408 -584 -381 -388 -873 -631 -1454
-717 -148 -23 -444 -23 -583 -1 -551 88 -877 359 -830 690 11 75 33 132 55
141 8 3 40 -4 71 -14 132 -46 219 -17 351 116 174 175 323 453 323 604 0 47
-8 64 -60 135 -48 64 -60 102 -60 184 0 178 119 486 336 869 97 169 159 258
233 333 79 79 131 105 232 117 41 5 90 17 107 26 86 45 195 277 244 520 25
124 29 380 6 401 -30 30 -332 47 -447 25 -75 -14 -110 -33 -195 -106 -256
-218 -683 -840 -938 -1364 -242 -498 -406 -1030 -425 -1375 -7 -140 6 -215 47
-261 16 -19 30 -40 30 -47 0 -6 -27 -66 -60 -132 -72 -144 -87 -216 -71 -343
19 -148 68 -259 161 -366 189 -216 498 -358 900 -412 139 -18 471 -18 632 1
888 104 1655 629 2029 1390 184 374 259 717 259 1180 0 314 -29 493 -126 777
-272 797 -910 1411 -1698 1637 -280 80 -516 112 -816 109 -113 0 -221 -3 -240
-5z"/>
<path d="M3377 4228 c-13 -255 -75 -450 -221 -697 -31 -51 -56 -97 -56 -102 0
-13 96 -39 191 -51 107 -14 186 0 229 40 32 31 128 250 165 377 17 61 25 115
27 192 3 102 2 110 -22 141 -38 52 -137 128 -222 172 -42 22 -78 40 -81 40 -2
0 -7 -51 -10 -112z"/>
<path d="M2275 1768 c-2 -7 -18 -56 -36 -108 -39 -120 -104 -259 -160 -341
-59 -89 -169 -200 -267 -271 l-83 -61 33 -20 c59 -36 212 -104 261 -116 45
-11 53 -10 105 14 111 51 279 254 373 448 63 132 63 215 2 288 -25 30 -207
179 -218 179 -3 0 -8 -6 -10 -12z"/>
</g>
</svg>
